<?xml version="1.0" encoding="UTF-8" standalone="no"?>
<svg width="100%" height="100%" viewBox="0 0 256 256" version="1.1" xmlns="http://www.w3.org/2000/svg" xmlns:xlink="http://www.w3.org/1999/xlink" xml:space="preserve" xmlns:serif="http://www.serif.com/" style="fill-rule:evenodd;clip-rule:evenodd;stroke-linejoin:round;stroke-miterlimit:2;">
  <g transform="matrix(0.898492,0,0,0.898492,12.9931,12.9842)">
    <g transform="matrix(-0.876292,0.876292,-0.876292,-0.876292,341.825,137.649)">
      <path d="M62.912,127.5C62.912,97.924 86.924,73.912 116.5,73.912C131.905,73.912 144.412,61.405 144.412,46C144.412,30.595 131.905,18.088 116.5,18.088C56.114,18.088 7.088,67.114 7.088,127.5C7.088,142.905 19.595,155.412 35,155.412C50.405,155.412 62.912,142.905 62.912,127.5Z" style="fill:#F39C57;" />
    </g>
    <g transform="matrix(0.876292,0.876292,-0.876292,0.876292,137.639,57.0402)">
      <path d="M35,155.412C95.386,155.412 144.412,106.386 144.412,46C144.412,30.595 131.905,18.088 116.5,18.088C101.095,18.088 88.588,30.595 88.588,46C88.588,75.576 64.576,99.588 35,99.588C19.595,99.588 7.088,112.095 7.088,127.5C7.088,142.905 19.595,155.412 35,155.412Z" style="fill:#2C8FC6;" />
    </g>
    <g transform="matrix(-0.876292,0.876292,-0.876292,-0.876292,198.97,137.649)">
      <path d="M35,155.412C95.386,155.412 144.412,106.386 144.412,46C144.412,30.595 131.905,18.088 116.5,18.088C101.095,18.088 88.588,30.595 88.588,46C88.588,75.576 64.576,99.588 35,99.588C19.595,99.588 7.088,112.095 7.088,127.5C7.088,142.905 19.595,155.412 35,155.412Z" style="fill:#56A44B;" />
    </g>
    <g transform="matrix(0.876292,0.876292,-0.876292,0.876292,137.639,-85.8152)">
      <path d="M62.912,127.5C62.912,97.924 86.924,73.912 116.5,73.912C131.905,73.912 144.412,61.405 144.412,46C144.412,30.595 131.905,18.088 116.5,18.088C56.114,18.088 7.088,67.114 7.088,127.5C7.088,142.905 19.595,155.412 35,155.412C50.405,155.412 62.912,142.905 62.912,127.5Z" style="fill:#F2C94C;" />
    </g>
  </g>
  <g transform="matrix(1.92,0,0,1.84615,-89.92,-86.1538)">
    <ellipse cx="113.5" cy="116" rx="12.5" ry="13" style="fill:#254751;" />
  </g>
</svg>